PathFileType	4	(X/Y/Z)	pose_F01_0-96.trc
DataRate	CameraRate	NumFrames	NumMarkers	Units	OrigDataRate	OrigDataStartFrame	OrigNumFrames
30	30	4	21	m	30	0	96
Frame#	Time	CHip			RHip			RKnee			RAnkle			RBigToe			RSmallToe			RHeel			LHip			LKnee			LAnkle			LBigToe			LSmallToe			LHeel			Neck			Nose			RShoulder			RElbow			RWrist			LShoulder			LElbow			LWrist			
		X1	Y1	Z1	X2	Y2	Z2	X3	Y3	Z3	X4	Y4	Z4	X5	Y5	Z5	X6	Y6	Z6	X7	Y7	Z7	X8	Y8	Z8	X9	Y9	Z9	X10	Y10	Z10	X11	Y11	Z11	X12	Y12	Z12	X13	Y13	Z13	X14	Y14	Z14	X15	Y15	Z15	X16	Y16	Z16	X17	Y17	Z17	X18	Y18	Z18	X19	Y19	Z19	X20	Y20	Z20	X21	Y21	Z21	
0	0.0	-0.2940917377368076	1.8342232041518758	-0.7000177919063582	-0.31284269916252533	1.8291821828478203	-0.6310143356478287	-0.3024894710317929	1.689294498883445	-0.5965422956435225	-0.2954767202767287	1.559905627321199	-0.5668751742451404	-0.2863604797215126	1.5326370749065632	-0.525210289074862	-0.29574349110482373	1.5395369121811635	-0.5021410374379638	-0.29965650022383	1.550705777434455	-0.5956924859563897	-0.2758421224723177	1.83645636101155	-0.7665755225613897	-0.2814992961573878	1.6879141406503195	-0.7474685496965418	-0.2420055273115262	1.5756574266640357	-0.7336205761882466	-0.38029063468604746	1.5065013385349555	-1.0582667149606126	-0.367378507053011	1.510238564997473	-1.0833399886814208				-0.2851454417360141	1.9988965950859794	-0.7128685986627489	-0.26619718703396344	2.064972292351387	-0.6654358065071364	-0.3127743016949179	1.9925223266848533	-0.6189913423353145	-0.3192154851343613	1.9078315692336978	-0.5596695363315219	-1.6430133290596005	1.884612843055058	0.9801552249272775	-0.25670673828099794	2.0038737391944563	-0.8045565773112482	-1.407542399002139	1.7736021168271001	0.677666689707233	-1.4740995867195195	1.8629638274174827	0.7523774738952764
1	0.03333333333333333	-0.2940917377368076	1.8342232041518758	-0.7000177919063582	-0.31284269916252533	1.8291821828478203	-0.6310143356478287	-0.3024894710317929	1.689294498883445	-0.5965422956435225	-0.2954767202767287	1.559905627321199	-0.5668751742451404	-0.2863604797215126	1.5326370749065632	-0.525210289074862	-0.29574349110482373	1.5395369121811635	-0.5021410374379638	-0.29965650022383	1.550705777434455	-0.5956924859563897	-0.2758421224723177	1.83645636101155	-0.7665755225613897	-0.2814992961573878	1.6879141406503195	-0.7474685496965418	-0.2420055273115262	1.5756574266640357	-0.7336205761882466	-0.38029063468604746	1.5065013385349555	-1.0582667149606126	-0.367378507053011	1.510238564997473	-1.0833399886814208				-0.2851454417360141	1.9988965950859794	-0.7128685986627489	-0.26619718703396344	2.064972292351387	-0.6654358065071364	-0.3127743016949179	1.9925223266848533	-0.6189913423353145	-0.3192154851343613	1.9078315692336978	-0.5596695363315219	-1.6430133290596005	1.884612843055058	0.9801552249272775	-0.25670673828099794	2.0038737391944563	-0.8045565773112482	-1.393176719092465	1.7798342273042327	0.6468274665740589	-1.4782002220181516	1.864075536241037	0.7577583032817079
2	0.06666666666666667	-0.2940917377368076	1.8342232041518758	-0.7000177919063582	-0.31284269916252533	1.8291821828478203	-0.6310143356478287	-0.3024894710317929	1.689294498883445	-0.5965422956435225	-0.2954767202767287	1.559905627321199	-0.5668751742451404	-0.2863604797215126	1.5326370749065632	-0.525210289074862	-0.29574349110482373	1.5395369121811635	-0.5021410374379638	-0.29965650022383	1.550705777434455	-0.5956924859563897	-0.2758421224723177	1.83645636101155	-0.7665755225613897	-0.2814992961573878	1.6879141406503195	-0.7474685496965418	-0.2420055273115262	1.5756574266640357	-0.7336205761882466	-0.38029063468604746	1.5065013385349555	-1.0582667149606126	-0.367378507053011	1.510238564997473	-1.0833399886814208				-0.2851454417360141	1.9988965950859794	-0.7128685986627489	-0.26619718703396344	2.064972292351387	-0.6654358065071364	-0.3127743016949179	1.9925223266848533	-0.6189913423353145	-0.3192154851343613	1.9078315692336978	-0.5596695363315219	-1.6430133290596005	1.884612843055058	0.9801552249272775	-0.25670673828099794	2.0038737391944563	-0.8045565773112482	-1.3788110391827912	1.7860663377813653	0.6159882434408848	-1.4823008573167835	1.8651872450645914	0.7631391326681395
3	0.1	-0.2940917377368076	1.8342232041518758	-0.7000177919063582	-0.31284269916252533	1.8291821828478203	-0.6310143356478287	-0.3024894710317929	1.689294498883445	-0.5965422956435225	-0.2954767202767287	1.559905627321199	-0.5668751742451404	-0.2863604797215126	1.5326370749065632	-0.525210289074862	-0.29574349110482373	1.5395369121811635	-0.5021410374379638	-0.29965650022383	1.550705777434455	-0.5956924859563897	-0.2758421224723177	1.83645636101155	-0.7665755225613897	-0.2814992961573878	1.6879141406503195	-0.7474685496965418	-0.2420055273115262	1.5756574266640357	-0.7336205761882466	-0.38029063468604746	1.5065013385349555	-1.0582667149606126	-0.367378507053011	1.510238564997473	-1.0833399886814208				-0.2851454417360141	1.9988965950859794	-0.7128685986627489	-0.26619718703396344	2.064972292351387	-0.6654358065071364	-0.3127743016949179	1.9925223266848533	-0.6189913423353145	-0.3192154851343613	1.9078315692336978	-0.5596695363315219	-1.6430133290596005	1.884612843055058	0.9801552249272775	-0.25670673828099794	2.0038737391944563	-0.8045565773112482	-1.3644453592731174	1.7922984482584978	0.5851490203077105	-1.4864014926154157	1.8662989538881456	0.768519962054571
